<svg id="Layer_1" data-name="Layer 1" xmlns="http://www.w3.org/2000/svg" width="5.847in" height="5.656in" viewBox="0 0 420.983 407.208"><defs></defs><title>github_logo</title><g id="XnfRP6"><path class="cls-1" d="M318.078,375.73a196.14,196.14,0,0,0,32.548-6.4c36.47-10.988,56.311-35.87,61.547-73.111,1.723-12.256,2.587-24.547.693-36.838A77.31,77.31,0,0,0,394.521,219.6a5.548,5.548,0,0,1-1.235-6.164c5.186-16.539,3.563-32.82-2.067-48.962-.985-2.824-2.653-3.4-5.237-3.346-12.319.27-23.3,4.964-34.071,10.286-3.867,1.911-7.907,3.768-11.208,6.459-5.724,4.668-11.394,4.56-18.338,2.968a191.649,191.649,0,0,0-90.523,1.1,10.584,10.584,0,0,1-9.175-1.569c-13.353-8.529-27.183-16.094-43.13-18.691-1.149-.187-2.312-.291-3.459-.492-5.095-.893-7.642.984-9.188,6.234-4.632,15.733-5.807,31.364-.648,47.126a3.9,3.9,0,0,1-1.019,4.374c-18.97,21.619-22.256,47.193-18.668,74.476a113.95,113.95,0,0,0,7,27.985c11.1,27.5,32.688,42.275,60.364,49.643,8.631,2.3,17.47,3.553,26.994,4.961A46.319,46.319,0,0,0,228.263,401.7c-.35,2.124-1.565,2.715-3.12,3.308-22.8,8.7-44.622,4.852-58.4-18.11-6.479-10.793-15.548-18.565-28.267-21.308a20.314,20.314,0,0,0-8.917-.108c-5.281,1.212-6.065,3.67-2.362,7.49a22.655,22.655,0,0,0,4.6,3.824c11.284,6.654,18.458,16.778,23.2,28.547,7.606,18.864,22.319,27.394,41.5,29.593a79.1,79.1,0,0,0,26.827-1.5c3.159-.728,3.979-.066,3.944,3.189-.118,11,.071,21.993.141,32.99.065,10.2-6.295,14.8-16.125,11.472-28.447-9.643-53.9-24.507-75.644-45.206-46.822-44.562-69.716-99.421-66.059-163.929,5.372-94.757,72.331-171.66,165.29-192.095,102.551-22.546,206.666,34.43,242.794,132.865,40,109.019-19.23,231.861-129.381,268.315-10.189,3.372-16.4-.985-16.38-11.6.026-17.829.119-35.658.182-53.487.038-10.788-1.545-21.206-6.843-30.82C323.458,381.915,321.029,379.2,318.078,375.73Z" transform="translate(-69.197 -74.951)"/><path class="cls-2" d="M221.9,410.554c1.965.273,4.222.534,4.027,2.872-.232,2.787-2.686,3.568-5.132,3.542-1.9-.02-3.9-.675-3.63-3.063C217.464,411.221,219.881,410.947,221.9,410.554Z" transform="translate(-69.197 -74.951)"/><path class="cls-2" d="M177.732,405.737c-.115,1.814-1.084,2.76-2.844,2.6a5,5,0,0,1-4.922-4.582c-.257-1.771.559-2.883,2.444-2.822C175.517,401.029,177.031,402.963,177.732,405.737Z" transform="translate(-69.197 -74.951)"/><path class="cls-2" d="M205.489,412.668c2.069.232,4.449.525,4.382,3.035-.071,2.664-2.513,3.29-4.737,3.207-2.021-.076-4.215-.728-4.052-3.314S203.55,412.909,205.489,412.668Z" transform="translate(-69.197 -74.951)"/><path class="cls-3" d="M188.754,416.3c-2.026-.2-4.34-.789-4.644-3.64-.229-2.147,1.468-2.7,3.281-2.691,2.7.018,5.108.915,5.328,3.893C192.867,415.863,190.915,416.3,188.754,416.3Z" transform="translate(-69.197 -74.951)"/><path class="cls-4" d="M163.858,396.282c-2.265-.453-3.632-2.116-3.777-4.727-.085-1.522.65-2.658,2.337-2.49,2.792.278,3.917,2.29,4.187,4.759C166.767,395.312,165.935,396.336,163.858,396.282Z" transform="translate(-69.197 -74.951)"/><path class="cls-5" d="M154.021,378.219a4.743,4.743,0,0,1,3.971,3.854,1.916,1.916,0,0,1-2.323,2.407,3.941,3.941,0,0,1-3.742-3.948,2.021,2.021,0,0,1,2.094-2.313Z" transform="translate(-69.197 -74.951)"/><path class="cls-6" d="M146.92,375.727c-1.684-.341-3.434-.728-3.667-2.754-.171-1.5,1.043-1.948,2.317-1.882a3.474,3.474,0,0,1,3.4,2.468C149.365,375,148.167,375.53,146.92,375.727Z" transform="translate(-69.197 -74.951)"/></g></svg>