<svg id="Layer_1" data-name="Layer 1" xmlns="http://www.w3.org/2000/svg" width="1.781in" height="1.764in" viewBox="0 0 128.212 127.008"><title>linkedin_logo</title><path d="M123,127.008H6.99c-4.628-2.7-6.134-6.645-6.1-12.041q.3-52.141.015-104.286C.886,6.37,1.97,2.928,4.993,0H125c3.252,3.045,4.1,6.766,4.08,11.193q-.218,51.885.023,103.773C129.133,120.366,127.605,124.293,123,127.008ZM51.342,47.2v60.4H70.151c0-10.551-.131-20.7.082-30.843a25.067,25.067,0,0,1,1.807-8.691c1.838-4.541,6.548-6.769,11.481-6,5.044.783,6.76,4.435,7.215,8.865.321,3.135.24,6.315.25,9.477C91.014,89.5,91,98.6,91,107.645h18.924c0-14,.287-27.649-.112-41.272-.224-7.634-2.2-14.97-9.832-18.968-8.653-4.534-20.239-2.808-27.452,3.913-1,.931-2.027,1.83-3.379,3.047l-.34-7.155ZM38.648,107.777V47.4h-18.4v60.373ZM29.586,39a11.624,11.624,0,0,0,11.4-11.431,11.5,11.5,0,1,0-23-.448q-.006.324.006.648A11.584,11.584,0,0,0,29.586,39Z" transform="translate(-0.89 0)"/></svg>