<svg xmlns="http://www.w3.org/2000/svg" width="11.111in" height="11.111in" viewBox="0 0 800 800"><defs><style>.cls-1{isolation:isolate;}.cls-2{fill:#ffb98b;}.cls-2,.cls-3,.cls-4,.cls-5{fill-rule:evenodd;}.cls-3{fill:#ff9e5c;}.cls-4{fill:#ff822e;}.cls-5{fill:#ff6700;}</style></defs><title>square_logo</title><g id="l_two" class="cls-1"><g id="l_two-2" data-name="l_two"><path class="cls-2" d="M672,0H480V700c0,55.228,57.308,100,128,100H800V100C800,44.772,742.692,0,672,0Z"/></g></g><g id="l_one" class="cls-1"><g id="l_one-2" data-name="l_one"><path class="cls-3" d="M512,0H320V700c0,55.228,57.308,100,128,100H640V100C640,44.772,582.692,0,512,0Z"/></g></g><g id="i_full" class="cls-1"><g id="i_full-2" data-name="i_full"><path class="cls-4" d="M352,206H288c-70.692,0-128,44.772-128,100V700c0,55.228,57.308,100,128,100H480V306C480,250.772,422.692,206,352,206Zm-64-6h64c70.692,0,128-44.772,128-100S422.692,0,352,0H160V100C160,155.228,217.308,200,288,200Z"/></g></g><g id="b_full" class="cls-1"><g id="b_full-2" data-name="b_full"><path class="cls-5" d="M320,305V100C320,44.772,262.692,0,192,0H0V700c0,55.228,57.308,100,128,100H320V500c0-47.561-42.5-87.364-99.45-97.5C277.5,392.364,320,352.561,320,305Z"/></g></g></svg>