<svg xmlns="http://www.w3.org/2000/svg" width="8.681in" height="11.111in" viewBox="0 0 625 800"><defs><style>.cls-1{isolation:isolate;}.cls-2{fill:#ffb98b;}.cls-2,.cls-3,.cls-4,.cls-5{fill-rule:evenodd;}.cls-3{fill:#ff9e5c;}.cls-4{fill:#ff822e;}.cls-5{fill:#ff6700;}</style></defs><title>Personal_logo_7</title><g id="L2" class="cls-1"><g id="L2-2" data-name="L2"><path class="cls-2" d="M884,350H734v800H984V450A100,100,0,0,0,884,350Z" transform="translate(-359 -350)"/></g></g><g id="L1" class="cls-1"><g id="L1-2" data-name="L1"><path class="cls-3" d="M759,350H609v800H859V450A100,100,0,0,0,759,350Z" transform="translate(-359 -350)"/></g></g><g id="IBottom" class="cls-1"><g id="IBottom-2" data-name="IBottom"><path class="cls-4" d="M634,556H584A100,100,0,0,0,484,656v494H734V656A100,100,0,0,0,634,556Z" transform="translate(-359 -350)"/></g></g><g id="ITop" class="cls-1"><g id="ITop-2" data-name="ITop"><path class="cls-4" d="M634,350H484V450A100,100,0,0,0,584,550h50a100,100,0,0,0,0-200Z" transform="translate(-359 -350)"/></g></g><g id="BTop" class="cls-1"><g id="BTop-2" data-name="BTop"><path class="cls-5" d="M509,350H359V750H509A100,100,0,0,0,609,650V450A100,100,0,0,0,509,350Z" transform="translate(-359 -350)"/></g></g><g id="BBottom" class="cls-1"><g id="BBottom-2" data-name="BBottom"><path class="cls-5" d="M509,750H359v300a100,100,0,0,0,100,100H609V850A100,100,0,0,0,509,750Z" transform="translate(-359 -350)"/></g></g></svg>