<svg id="Layer_1" data-name="Layer 1" xmlns="http://www.w3.org/2000/svg" width="5.652in" height="12.052in" viewBox="0 0 406.932 867.766"><title>iphone_no_mic</title><path d="M60.655,419.992c-.006-118.828.355-237.658-.226-356.483-.173-35.44,25.028-70.256,64.383-76.216a63.5,63.5,0,0,1,9.456-.607q129.744-.047,259.488.01c39.8.053,73.533,33.621,73.546,73.333q.117,360.483,0,720.966c-.013,39.491-33.679,73.239-73.066,73.3q-130.243.206-260.488,0c-39.379-.063-73.012-33.82-73.047-73.32Q60.536,600.484,60.655,419.992Zm16.7.007q0,163.5,0,327c0,6.633.013,6.648,6.521,6.648q180.5,0,361,0c6.764,0,6.773-.011,6.774-6.9q0-326.249,0-652.5c0-6.888-.01-6.9-6.772-6.9q-180.249,0-360.5,0c-7.017,0-7.024.008-7.024,7.147Q77.35,257.25,77.352,420Zm186.4,413.649c15.394,2.088,28.847-14.486,29.312-27.513.6-16.826-15.3-29.775-28.057-30.209-16.4-.558-29.915,15.04-30.1,28.7C234.695,819.954,249.6,835.619,263.755,833.648Z" transform="translate(-60.428 13.367)"/></svg>