<?xml version="1.0" standalone="no"?>
<!DOCTYPE svg PUBLIC "-//W3C//DTD SVG 20010904//EN"
 "http://www.w3.org/TR/2001/REC-SVG-20010904/DTD/svg10.dtd">
<svg version="1.0" xmlns="http://www.w3.org/2000/svg"
 width="800.000000pt" height="800.000000pt" viewBox="0 0 800.000000 800.000000"
 preserveAspectRatio="xMidYMid meet">
<metadata>
Created by potrace 1.11, written by Peter Selinger 2001-2013
</metadata>
<g transform="translate(0.000000,800.000000) scale(0.100000,-0.100000)"
fill="#000000" stroke="none">
<path d="M2002 4423 l3 -3578 27 -97 c59 -213 178 -395 347 -530 86 -68 207
-134 311 -168 149 -50 113 -49 1763 -50 l1547 0 -1 1547 c-1 1653 0 1617 -50
1766 -104 308 -343 543 -653 641 -70 23 -188 44 -209 38 -5 -1 -6 1 -4 6 3 4
20 9 39 10 61 5 192 40 273 74 225 95 428 298 522 522 19 44 41 106 48 136 8
30 18 69 22 85 4 17 8 534 10 1150 2 1203 3 1186 -48 1339 -118 350 -415 606
-779 671 -61 11 -374 14 -1623 15 l-1547 0 2 -3577z"/>
</g>
</svg>
